<mxfile host="app.diagrams.net" agent="Mozilla/5.0 (Windows NT 10.0; Win64; x64) AppleWebKit/537.36 (KHTML, like Gecko) Chrome/133.0.0.0 Safari/537.36 Edg/133.0.0.0" version="26.0.16">
  <diagram name="PÃ¡gina-1" id="s7rQl8oE9P6R1_BivPTQ">
    <mxGraphModel dx="727" dy="398" grid="1" gridSize="10" guides="1" tooltips="1" connect="1" arrows="1" fold="1" page="1" pageScale="1" pageWidth="827" pageHeight="1169" math="0" shadow="0">
      <root>
        <mxCell id="0" />
        <mxCell id="1" parent="0" />
        
        <!-- Board -->
        <mxCell id="board" value="Board" style="swimlane;fillColor=none;whiteSpace=wrap;html=1;" vertex="1" parent="1">
          <mxGeometry x="20" y="70" width="140" height="78" as="geometry" />
        </mxCell>
        <mxCell id="board-id" value="+ id: long" style="text;fillColor=none;whiteSpace=wrap;html=1;" vertex="1" parent="board">
          <mxGeometry y="26" width="140" height="26" as="geometry" />
        </mxCell>
        <mxCell id="board-name" value="+ name: String" style="text;fillColor=none;whiteSpace=wrap;html=1;" vertex="1" parent="board">
          <mxGeometry y="52" width="140" height="26" as="geometry" />
        </mxCell>
        
        <!-- Board Column -->
        <mxCell id="board-column" value="Board Column" style="swimlane;fillColor=none;whiteSpace=wrap;html=1;" vertex="1" parent="1">
          <mxGeometry x="520" y="70" width="140" height="130" as="geometry" />
        </mxCell>
        <mxCell id="column-id" value="+ id: long" style="text;fillColor=none;whiteSpace=wrap;html=1;" vertex="1" parent="board-column">
          <mxGeometry y="26" width="140" height="26" as="geometry" />
        </mxCell>
        <mxCell id="column-name" value="+ name: String" style="text;fillColor=none;whiteSpace=wrap;html=1;" vertex="1" parent="board-column">
          <mxGeometry y="52" width="140" height="26" as="geometry" />
        </mxCell>
        <mxCell id="column-kind" value="+ kind: String\n+ order: int" style="text;fillColor=none;whiteSpace=wrap;html=1;" vertex="1" parent="board-column">
          <mxGeometry y="78" width="140" height="52" as="geometry" />
        </mxCell>
        
        <!-- Relationship: Board 1-N Board Column -->
        <mxCell id="board-to-column" style="edgeStyle=orthogonalEdgeStyle;endArrow=block;startArrow=none;html=1;" edge="1" parent="1" source="board" target="board-column">
          <mxGeometry width="160" relative="1" as="geometry">
            <mxPoint x="260" y="190" as="sourcePoint" />
            <mxPoint x="420" y="190" as="targetPoint" />
          </mxGeometry>
        </mxCell>
        <mxCell id="relation-label" value="1-N" style="edgeLabel;html=1;align=center;verticalAlign=middle;resizable=0;" vertex="1" connectable="0" parent="board-to-column">
          <mxGeometry x="-0.019" y="3" relative="1" as="geometry">
            <mxPoint as="offset" />
          </mxGeometry>
        </mxCell>
      </root>
    </mxGraphModel>
  </diagram>
</mxfile>
